<svg xmlns="http://www.w3.org/2000/svg" viewBox="0 0 64 64">
  <defs><linearGradient id="g" x1="0" y1="0" x2="1" y2="1"><stop stop-color="#7B2CBF"/><stop offset="1" stop-color="#E91E63"/></linearGradient></defs>
  <rect width="64" height="64" rx="16" fill="url(#g)"/>
  <path d="M43 20c-4-4-9-6-15-6-9 0-16 5-16 13 0 9 8 12 16 14 6 2 10 3 10 7 0 3-4 5-8 5-6 0-12-3-16-8l-7 9c6 7 14 10 23 10 10 0 18-6 18-15 0-10-8-12-16-15-6-1-10-3-10-6 0-3 3-5 7-5 5 0 10 2 14 6z" fill="#fff" transform="translate(4 -7) scale(.9)"/>
</svg>
