<svg xmlns="http://www.w3.org/2000/svg" viewBox="0 0 520 160" role="img" aria-labelledby="title desc">
  <title id="title">SalaOne</title>
  <desc id="desc">Marca SalaOne em roxo e rosa</desc>
  <defs>
    <linearGradient id="brand" x1="0" y1="0" x2="1" y2="1">
      <stop offset="0" stop-color="#7B2CBF"/>
      <stop offset="1" stop-color="#E91E63"/>
    </linearGradient>
  </defs>
  <rect x="10" y="10" width="140" height="140" rx="36" fill="url(#brand)"/>
  <path d="M105 49c-8-8-18-12-30-12-18 0-32 10-32 26 0 18 16 23 31 27 12 3 20 6 20 13 0 7-7 11-16 11-12 0-23-6-31-15l-14 17c11 13 27 20 45 20 20 0 36-11 36-29 0-19-16-24-32-29-11-3-19-6-19-12 0-6 6-10 14-10 10 0 19 4 27 11z" fill="#fff"/>
  <text x="174" y="101" fill="#1A1A1A" font-family="'Playfair Display', Georgia, serif" font-size="67" font-weight="700">Sala</text>
  <text x="310" y="101" fill="url(#brand)" font-family="'Playfair Display', Georgia, serif" font-size="67" font-weight="700">One</text>
  <text x="178" y="128" fill="#6E6E6E" font-family="Poppins, Arial, sans-serif" font-size="14" letter-spacing="5">BEAUTY MANAGEMENT</text>
</svg>
